<svg xmlns="http://www.w3.org/2000/svg" width="2067" height="709" shape-rendering="geometricPrecision" text-rendering="geometricPrecision" image-rendering="optimizeQuality" fill-rule="evenodd" clip-rule="evenodd" viewBox="0 0 206700 70869"><path fill="#B71C1C" d="M4854 4309h30561c1922 0 3494 1573 3494 3497v5077c0 1923-1572 3497-3494 3497H4854c-1922 0-3494-1574-3494-3497V7806c0-1923 1572-3497 3494-3497z"/><path fill="#FEFEFE" fill-rule="nonzero" d="M15403 7185c-479 0-867 388-867 867s388 867 867 867h9463c479 0 867-388 867-867s-388-867-867-867h-9463z"/><path fill="#B71C1C" d="M4854 31847h30561c1922 0 3494 1574 3494 3497v5077c0 1923-1572 3497-3494 3497H4854c-1922 0-3494-1573-3494-3497v-5077c0-1923 1572-3497 3494-3497z"/><path fill="#FEFEFE" fill-rule="nonzero" d="M15403 34705c-479 0-867 388-867 867s388 867 867 867h9463c479 0 867-388 867-867s-388-867-867-867h-9463z"/><path fill="#F7A707" d="M10029 18078h30561c1922 0 3494 1573 3494 3497v5077c0 1923-1572 3497-3494 3497H10029c-1922 0-3494-1573-3494-3497v-5077c0-1923 1572-3497 3494-3497z"/><path fill="#FEFEFE" fill-rule="nonzero" d="M21238 21070c-307-365-851-412-1215-105-365 307-412 851-105 1216 292 347 622 659 980 934 1271 977 2897 1479 4502 1481 1617 2 3228-502 4458-1538 316-266 607-569 868-908 290-378 219-920-159-1210s-919-219-1209 159c-181 235-386 448-610 637-905 762-2116 1133-3347 1132-1242-2-2490-382-3452-1122-258-198-496-424-709-677z"/><path fill="#B71C1C" fill-rule="nonzero" d="M105777 5303c1660-893 3675-863 5478-495 1778 386 3096 1860 3739 3504 4254 10565 8496 21133 12748 31697 153 417 408 836 326 1297-122 630-595 1116-1068 1514-1383 1116-3152 1781-4936 1741-1405-40-2770-685-3693-1743-815-873-1280-1996-1629-3120-2473-7329-4940-14659-7417-21987-2575 7539-5118 15089-7694 22626-621 1853-2057 3505-3982 4027-2264 583-4709-215-6507-1628-621-497-1309-1306-928-2149 4261-10424 8531-20847 12797-31269 582-1521 1276-3173 2767-4014zM64062 27206c2537 973 5437 938 7968-42-1205-3847-2561-7647-3981-11419-1414 3791-2736 7614-3988 11461zM62067 6935c626-1419 2171-2100 3624-2308 1740-233 3526-248 5258 53 1340 226 2677 960 3251 2246 4479 11297 8957 22594 13433 33890 326 720-167 1457-679 1934-1189 1087-2759 1769-4368 1861-1414 93-2870-388-3911-1357-939-833-1574-1945-2028-3100-594-1521-1152-3055-1726-4583-4421 1426-9282 1435-13727 104-552 1581-1132 3149-1718 4717-562 1516-1536 2980-3031 3701-1718 862-3809 596-5457-306-823-468-1691-1036-2068-1943-255-592 115-1175 307-1723 4279-11062 8564-22124 12839-33187zM183185 13389c-2426 459-4640 1932-5979 4011-1684 2568-2126 5776-1815 8783 299 2940 1622 5883 4033 7676 2512 1918 5937 2346 8950 1561 2313-594 4346-2140 5577-4184 1678-2743 2020-6135 1514-9262-479-2843-1978-5608-4438-7198-2282-1519-5185-1898-7843-1386zm-1085-9095c5584-814 11590 351 16110 3841 3351 2558 5717 6299 6778 10364 941 3625 992 7472 206 11129-801 3614-2566 7042-5204 9656-2685 2710-6230 4499-9958 5242-4984 962-10355 410-14854-2025-2950-1588-5449-4002-7144-6893-1715-2907-2632-6249-2810-9610-231-3953 457-8011 2308-11536 2257-4424 6343-7834 11063-9348 1141-375 2317-647 3506-822zM144303 4298c4081-550 8362-229 12169 1414 2189 971 4223 2442 5557 4463 799 1228 1314 2749 959 4215-366 1732-1817 3016-3400 3663-724 273-1491 563-2277 479-692-169-843-984-1287-1446-3134-4138-9603-4914-13785-1958-2268 1581-3708 4166-4157 6867-528 3131-106 6524 1656 9217 1343 2091 3509 3628 5936 4177 2599 587 5447 299 7775-1044 1516-867 2736-2231 3418-3840 162-485 704-698 1181-607 1238 159 2432 650 3447 1377 1216 876 2066 2317 2015 3843-53 1974-1205 3723-2530 5107-2523 2559-6019 3934-9521 4475-3318 474-6745 359-9980-552-3138-880-6067-2541-8360-4865-2221-2215-3804-5026-4709-8020-996-3348-1189-6918-682-10368 539-3661 2026-7209 4428-10036 3032-3623 7492-5916 12146-6561zM10750 64323c0 80-2 150-7 208-5 60-12 109-24 150s-27 75-43 106c-17 31-53 77-113 135-58 60-159 133-299 222-142 87-302 167-478 234-178 70-369 125-577 167-208 43-422 65-644 65-458 0-864-75-1216-227-355-150-652-369-888-659-239-290-420-647-545-1067-125-422-188-907-188-1460 0-625 77-1163 229-1614 154-449 364-818 630-1105 268-287 582-500 941-639 362-137 753-207 1173-207 203 0 398 19 589 58 193 36 367 87 528 147 159 63 304 133 427 215 125 80 217 150 273 205 58 58 96 104 118 135 19 34 39 72 53 118 12 43 22 94 27 152 5 56 7 128 7 212 0 183-22 311-63 386-43 72-94 109-157 109-70 0-152-39-244-118-92-77-208-164-350-258s-314-181-514-258c-200-80-437-118-709-118-562 0-994 215-1293 647-299 429-449 1054-449 1872 0 408 39 767 116 1076 80 307 193 565 345 772 150 205 335 360 555 461s471 152 753 152c270 0 507-43 710-128 203-84 376-179 526-282 150-101 275-193 376-275 101-84 179-125 236-125 31 0 60 10 84 29s43 51 60 94c17 46 29 101 36 171 7 68 10 150 10 244zM17711 61842c0 183-46 314-138 393-92 77-198 116-316 116h-4179c0 355 36 673 106 956 70 285 188 528 355 731 164 203 379 357 642 466 265 109 589 164 970 164 302 0 572-24 806-75 237-48 442-104 613-164s314-116 425-164c111-51 193-75 251-75 34 0 63 7 89 24 24 17 46 41 58 75 15 31 27 77 34 135 7 60 10 130 10 215 0 60-2 113-7 159-5 43-10 84-17 118-7 36-19 68-36 96-17 27-36 53-63 80s-104 68-229 126c-128 60-292 116-495 174-203 55-437 106-702 150-265 46-548 68-849 68-524 0-980-72-1373-220-393-145-724-362-992-649-268-290-471-649-606-1083-137-432-205-936-205-1513 0-545 70-1038 212-1474 140-434 345-806 610-1110 266-304 589-536 965-700 376-162 799-244 1264-244 500 0 924 80 1274 241 352 159 639 376 866 647 224 270 391 589 497 956 106 364 159 755 159 1170v212zm-1173-345c15-613-121-1096-408-1445-287-350-709-524-1272-524-289 0-543 53-760 162s-398 253-545 434c-147 179-261 388-340 625-80 239-125 487-135 748h3460zM25349 62016c0 557-60 1057-181 1501-118 442-294 818-528 1127-232 309-521 548-864 714s-736 251-1178 251c-188 0-362-19-521-56-162-39-316-96-471-178-152-80-304-181-454-304-152-121-311-265-480-429v3188c0 39-10 70-29 99s-48 53-92 72c-43 17-101 31-178 41-75 10-171 15-290 15-116 0-210-5-285-15-77-10-137-24-181-41-46-19-77-43-94-72s-24-60-24-99v-8892c0-43 7-77 22-104 15-24 43-48 84-65 43-19 96-34 164-41 65-7 147-10 241-10 99 0 181 2 246 10 63 7 116 22 159 39 43 19 72 43 89 68 17 26 24 60 24 104v852c193-198 379-369 557-516 178-145 360-265 540-362 181-96 367-171 557-220 191-51 391-75 603-75 461 0 852 89 1178 268 323 181 589 425 794 736s355 673 449 1086 140 849 140 1310zm-1216 135c0-326-24-642-75-946-48-304-135-574-253-811-121-236-282-425-485-567s-456-212-758-212c-152 0-299 22-446 68-145 46-294 116-446 212-150 96-309 224-473 384-164 159-340 355-524 586v2531c321 393 625 693 912 903 290 208 591 311 907 311 292 0 543-70 753-212s379-331 509-567 224-500 287-794c60-292 92-589 92-886zM32390 63275c0 326-60 630-181 912s-306 528-562 736c-253 208-579 372-975 490-398 121-871 181-1424 181-125 0-258 0-396-2-137-2-270-7-403-14s-261-17-388-27c-128-7-253-19-376-34-198-24-343-87-437-191s-142-263-142-475v-5914c0-39 7-70 24-96 17-24 48-48 94-70 43-22 104-36 181-43 75-7 169-10 285-10 113 0 208 2 282 10 77 7 138 22 181 43 46 22 77 46 96 70 19 27 29 58 29 96v2242c174-15 362-27 565-34s410-10 623-10c514 0 956 51 1325 152s671 246 907 434 410 413 524 676c114 261 169 555 169 878zm-1231 80c0-195-31-372-92-531-60-157-162-292-304-403-140-111-326-198-550-256-227-60-504-89-832-89-198 0-393 5-584 14-191 10-364 22-519 36v2456c164 17 340 34 531 48 188 15 396 22 627 22 584 0 1016-116 1298-345s425-548 425-953zM39320 61842c0 183-46 314-138 393-92 77-198 116-316 116h-4179c0 355 36 673 106 956 70 285 188 528 355 731 164 203 379 357 642 466 265 109 589 164 970 164 302 0 572-24 806-75 237-48 442-104 613-164s314-116 425-164c111-51 193-75 251-75 34 0 63 7 89 24 24 17 46 41 58 75 15 31 27 77 34 135 7 60 10 130 10 215 0 60-2 113-7 159-5 43-10 84-17 118-7 36-19 68-36 96-17 27-36 53-63 80s-104 68-229 126c-128 60-292 116-495 174-203 55-437 106-702 150-265 46-548 68-849 68-524 0-980-72-1373-220-393-145-724-362-992-649-268-290-471-649-606-1083-137-432-205-936-205-1513 0-545 70-1038 212-1474 140-434 345-806 610-1110 266-304 589-536 965-700 376-162 799-244 1264-244 500 0 924 80 1274 241 352 159 639 376 866 647 224 270 391 589 497 956 106 364 159 755 159 1170v212zm-1173-345c15-613-121-1096-408-1445-287-350-709-524-1272-524-289 0-543 53-760 162s-398 253-545 434c-147 179-261 388-340 625-80 239-125 487-135 748h3460zM45509 63536c0 321-63 608-191 864-128 253-309 473-548 654-236 181-528 319-871 413-345 94-736 142-1173 142-246 0-475-17-690-53s-408-82-586-138c-176-53-323-113-444-179-121-63-205-118-253-159-51-43-87-82-111-118-24-34-39-72-48-116-10-41-19-94-27-154-7-60-10-133-10-217 0-75 5-137 15-191 10-51 22-94 36-125 12-34 29-58 48-75s46-24 77-24c53 0 125 31 217 96 92 63 215 133 372 210 154 80 347 152 577 217 227 65 509 99 845 99 236 0 449-24 637-75 188-48 347-123 480-220 133-96 234-217 309-364 72-145 109-316 109-509 0-167-36-314-106-446-70-133-181-244-333-335-150-92-343-164-579-217-236-51-521-77-857-77h-707c-48 0-84-7-113-24s-53-43-75-77c-22-36-36-84-43-142s-10-128-10-208c0-77 5-142 15-198 10-58 24-101 41-135 19-34 43-58 72-75 27-17 63-24 104-24h685c294 0 550-24 763-70 215-48 393-118 536-210 145-92 249-205 319-340 68-135 101-290 101-463 0-157-34-294-99-413-65-118-154-215-265-294-109-77-246-135-405-176s-331-60-514-60c-287 0-543 34-767 99s-417 137-579 215c-162 80-294 150-398 212-104 65-176 96-220 96-24 0-46-5-68-17-19-12-39-34-56-65-17-29-29-72-36-125s-10-118-10-193c0-138 10-244 31-323 22-82 60-150 118-205 55-56 154-123 297-198 140-75 307-142 497-200 191-58 398-109 623-147 224-41 454-60 690-60 345 0 659 36 948 109 287 75 533 183 738 333 205 147 364 333 478 550 114 220 169 475 169 767 0 174-29 340-85 497-58 159-137 304-244 434-106 133-236 251-393 355-154 104-326 183-516 239l-14 7c186 19 367 72 545 159 178 89 340 200 480 340 142 140 256 304 343 495 87 193 130 403 130 635zM52804 65302c0 39-10 70-29 96-19 24-48 48-92 68-43 17-101 31-178 41-75 10-169 15-282 15-121 0-217-5-292-15-77-10-135-24-179-41-43-19-72-43-92-68-19-27-29-58-29-96v-2792h-3229v2792c0 39-10 70-29 96-19 24-48 48-92 68-43 17-101 31-178 41-75 10-171 15-290 15-116 0-210-5-285-15-77-10-137-24-181-41-46-19-77-43-94-68-17-27-24-58-24-96v-6366c0-39 7-70 24-96 17-24 48-48 94-70 43-22 104-36 181-43 75-7 169-10 285-10 118 0 215 2 290 10 77 7 135 22 178 43 43 22 72 46 92 70 19 27 29 58 29 96v2589h3229v-2589c0-39 10-70 29-96 19-24 48-48 92-70 43-22 101-36 179-43 75-7 171-10 292-10 114 0 208 2 282 10 77 7 135 22 178 43 43 22 72 46 92 70 19 27 29 58 29 96v6366zM59763 65310c0 56-19 99-56 128-39 29-89 48-157 63-65 14-162 22-289 22-121 0-220-7-292-22s-126-34-159-63c-34-29-51-70-51-128v-637c-277 297-586 528-929 693-343 162-705 244-1086 244-335 0-639-43-910-130-270-87-502-215-693-379s-340-369-446-608c-106-241-159-514-159-820 0-360 72-671 220-934 145-265 355-485 630-659 273-174 608-306 1004-393s842-130 1337-130h878v-497c0-244-27-461-77-651-53-188-135-345-251-471s-265-220-449-282c-183-65-410-97-678-97-287 0-545 34-772 104-229 70-430 145-601 229s-316 159-432 229c-113 70-200 104-256 104-39 0-72-10-99-29-29-17-53-46-75-84-22-36-36-84-46-142-10-60-14-123-14-195 0-116 7-210 24-278s58-133 121-193 174-133 328-217c154-82 335-159 538-229 200-68 422-125 664-171 239-46 482-68 726-68 456 0 845 51 1165 154 321 104 579 258 777 459 198 200 340 449 430 746 89 297 135 644 135 1040v4295zm-1158-2915h-997c-318 0-596 27-832 82-234 53-429 135-586 241-154 106-268 232-343 381-72 150-109 321-109 514 0 331 104 594 314 789s502 294 881 294c304 0 589-77 849-234 261-154 536-393 823-714v-1354zM66596 65302c0 39-7 70-24 99s-46 51-89 68-101 29-179 39c-75 10-174 15-297 15-116 0-210-5-285-15-77-10-137-22-181-39-46-17-77-39-94-68-17-26-24-60-24-99v-2676h-671c-292 0-519 24-683 70-162 48-309 125-437 236-130 111-246 253-350 425-104 171-203 381-297 632l-516 1243c-24 60-48 111-77 147-29 39-70 68-123 89-53 22-123 36-205 43s-183 10-307 10c-87 0-167-2-234-7-68-5-125-12-174-24-46-12-82-31-104-58-24-24-36-58-36-94 0-34 12-87 39-159s80-200 159-384l509-1194c133-302 294-562 487-779 193-220 415-381 666-485-459-84-820-268-1093-548-270-282-405-654-405-1117 0-307 63-584 191-832 128-249 314-459 562-630 246-174 550-307 912-398 360-92 772-138 1240-138 111 0 244 2 391 7 150 5 302 12 459 22 159 10 311 19 461 31 147 12 275 22 384 31 142 14 249 65 319 157 70 89 106 200 106 330v6049zm-1173-5687c-169-24-343-41-521-48-176-7-340-10-492-10-319 0-584 27-796 82-215 53-384 133-514 234-128 101-220 222-273 360-56 135-82 287-82 454 0 169 31 323 94 459 65 135 159 249 290 340 128 92 294 164 495 212 203 51 483 75 845 75h956v-2157zM80071 65240c5 104-29 176-99 220-70 41-215 63-429 63-118 0-215-2-290-7s-135-14-176-29c-43-14-72-34-89-60-17-24-27-58-31-101l-466-3709c-14-133-29-273-43-425-15-150-27-304-41-458-14-157-29-311-41-466-12-157-24-302-39-439l-7-162c-43 135-87 280-135 429-46 152-96 304-152 461-53 154-106 311-154 466-51 154-96 302-137 439l-1337 3764c-19 56-41 104-68 142-27 36-60 68-106 92-46 22-101 39-169 48-70 10-152 15-251 15s-183-5-249-15c-65-10-121-24-166-46-46-22-82-51-109-89-29-36-53-84-72-140l-1286-3772c-48-133-97-275-145-425-51-152-101-307-150-463-51-157-99-314-145-471-48-154-87-302-121-437l-7 162c-15 137-27 282-41 439-14 154-29 309-46 466-14 154-31 309-48 458-15 152-29 292-36 425l-429 3646c-5 56-15 101-31 138-17 34-48 60-96 77s-109 29-183 36c-77 7-176 10-299 10-118 0-212-5-280-15-70-10-121-27-157-48-36-24-58-53-68-89s-10-80 0-130l695-6020c24-150 77-263 159-343 82-77 208-116 372-116h557c135 0 251 10 347 31 97 22 179 58 249 111 68 51 125 121 171 208 48 87 92 195 135 328l941 2705c51 166 106 333 162 500 58 166 111 330 159 495 51 162 96 321 142 475 43 157 84 304 123 446h15c43-147 87-302 130-463 46-162 94-328 145-495 53-167 106-333 159-497 56-167 109-323 159-473l941-2693c39-118 80-220 123-306 46-87 101-159 166-212 68-56 145-94 239-121 92-27 203-39 335-39h553c169 0 299 36 386 106s138 183 152 338l710 6035zM87249 61842c0 183-46 314-138 393-92 77-198 116-316 116h-4179c0 355 36 673 106 956 70 285 188 528 355 731 164 203 379 357 642 466 265 109 589 164 970 164 302 0 572-24 806-75 237-48 442-104 613-164s314-116 425-164c111-51 193-75 251-75 34 0 63 7 89 24 24 17 46 41 58 75 15 31 27 77 34 135 7 60 10 130 10 215 0 60-2 113-7 159-5 43-10 84-17 118-7 36-19 68-36 96-17 27-36 53-63 80s-104 68-229 126c-128 60-292 116-495 174-203 55-437 106-702 150-265 46-548 68-849 68-524 0-980-72-1373-220-393-145-724-362-992-649-268-290-471-649-606-1083-137-432-205-936-205-1513 0-545 70-1038 212-1474 140-434 345-806 610-1110 266-304 589-536 965-700 376-162 799-244 1264-244 500 0 924 80 1274 241 352 159 639 376 866 647 224 270 391 589 497 956 106 364 159 755 159 1170v212zm-1173-345c15-613-121-1096-408-1445-287-350-709-524-1272-524-289 0-543 53-760 162s-398 253-545 434c-147 179-261 388-340 625-80 239-125 487-135 748h3460zM94959 62023c0 531-72 1016-220 1455-145 437-357 813-635 1132-280 319-618 565-1016 738-398 174-847 261-1344 261-519 0-968-84-1347-251s-693-420-941-755c-246-338-430-760-548-1264-118-507-176-1103-176-1786 0-579 27-1112 82-1600 53-487 130-924 229-1315 99-388 217-719 355-992 135-273 275-490 420-649 145-162 285-290 425-386s294-186 463-268 362-154 577-215c215-63 456-116 726-164l2271-374c80-15 145-19 198-17 51 2 92 19 121 55 27 36 46 94 56 174s14 191 14 333c0 94-5 174-14 239-10 68-27 121-48 164-24 41-60 75-106 99-48 22-109 41-186 56l-2116 355c-212 34-398 70-557 113-162 41-304 89-429 142-125 51-234 109-328 171-94 65-188 147-285 246-94 99-179 222-258 369-77 145-142 311-198 500-53 186-99 388-133 608-36 220-70 454-104 702 154-164 321-314 495-449 174-133 357-249 550-343s398-167 613-215c215-51 442-75 680-75 458 0 857 77 1199 229 340 152 625 372 847 654 224 282 391 620 502 1016s167 830 167 1305zm-1216 99c0-311-29-608-89-890-58-285-152-533-282-748-128-212-304-386-521-514-220-130-490-195-808-195-198 0-384 24-555 75-174 48-340 123-507 224-164 101-328 227-495 376-164 147-340 323-528 526-5 75-7 164-7 263v304c0 509 31 956 97 1342 63 389 166 710 314 970 145 258 338 454 579 586 239 133 533 198 883 198 306 0 579-60 818-181 241-121 442-287 606-504 162-217 285-483 369-791 84-311 128-659 128-1040zM102164 61842c0 183-46 314-138 393-92 77-198 116-316 116h-4179c0 355 36 673 106 956 70 285 188 528 355 731 164 203 379 357 642 466 265 109 589 164 970 164 302 0 572-24 806-75 237-48 442-104 613-164s314-116 425-164c111-51 193-75 251-75 34 0 63 7 89 24 24 17 46 41 58 75 15 31 27 77 34 135 7 60 10 130 10 215 0 60-2 113-7 159-5 43-10 84-17 118-7 36-19 68-36 96-17 27-36 53-63 80s-104 68-229 126c-128 60-292 116-495 174-203 55-437 106-702 150-265 46-548 68-849 68-524 0-980-72-1373-220-393-145-724-362-992-649-268-290-471-649-606-1083-137-432-205-936-205-1513 0-545 70-1038 212-1474 140-434 345-806 610-1110 266-304 589-536 965-700 376-162 799-244 1264-244 500 0 924 80 1274 241 352 159 639 376 866 647 224 270 391 589 497 956 106 364 159 755 159 1170v212zm-1173-345c15-613-121-1096-408-1445-287-350-709-524-1272-524-289 0-543 53-760 162s-398 253-545 434c-147 179-261 388-340 625-80 239-125 487-135 748h3460zM108937 65302c0 39-10 70-29 96-19 24-48 48-92 68-41 17-101 31-176 41s-169 15-282 15c-118 0-215-5-289-15-75-10-135-24-181-41-43-19-75-43-94-68-19-27-29-58-29-96v-5557h-1752c-75 748-167 1414-273 1998s-224 1093-357 1527c-133 432-282 799-446 1096s-345 536-540 717c-198 181-410 311-639 391-227 80-473 121-731 121-43 0-80-7-111-22-29-15-56-39-75-77-17-36-31-89-41-159-10-68-15-154-15-263 0-113 2-205 10-275 7-70 19-128 36-169 17-43 39-70 63-84 26-15 58-22 96-22 157 0 304-36 446-109 140-75 273-195 396-362 123-166 239-386 347-656 106-273 205-606 297-1001 89-396 174-859 253-1390 80-528 157-1139 227-1827 10-142 43-246 104-316 58-68 142-101 251-101h3267c111 0 200 34 263 104 65 68 96 171 96 314v6124zM116384 63275c0 326-60 630-181 912s-306 528-562 736c-253 208-579 372-975 490-398 121-871 181-1424 181-125 0-258 0-396-2-137-2-270-7-403-14s-261-17-388-27c-128-7-253-19-376-34-198-24-343-87-437-191s-142-263-142-475v-5914c0-39 7-70 24-96 17-24 48-48 94-70 43-22 104-36 181-43 75-7 169-10 285-10 113 0 208 2 282 10 77 7 138 22 181 43 46 22 77 46 96 70 19 27 29 58 29 96v2242c174-15 362-27 565-34s410-10 623-10c514 0 956 51 1325 152s671 246 907 434 410 413 524 676c114 261 169 555 169 878zm-1231 80c0-195-31-372-92-531-60-157-162-292-304-403-140-111-326-198-550-256-227-60-504-89-832-89-198 0-393 5-584 14-191 10-364 22-519 36v2456c164 17 340 34 531 48 188 15 396 22 627 22 584 0 1016-116 1298-345s425-548 425-953zM123473 65302c0 39-10 70-29 96-19 24-48 48-92 68-43 17-101 31-178 41-75 10-169 15-282 15-121 0-217-5-292-15-77-10-135-24-179-41-43-19-72-43-92-68-19-27-29-58-29-96v-2792h-3229v2792c0 39-10 70-29 96-19 24-48 48-92 68-43 17-101 31-178 41-75 10-171 15-290 15-116 0-210-5-285-15-77-10-137-24-181-41-46-19-77-43-94-68-17-27-24-58-24-96v-6366c0-39 7-70 24-96 17-24 48-48 94-70 43-22 104-36 181-43 75-7 169-10 285-10 118 0 215 2 290 10 77 7 135 22 178 43 43 22 72 46 92 70 19 27 29 58 29 96v2589h3229v-2589c0-39 10-70 29-96 19-24 48-48 92-70 43-22 101-36 179-43 75-7 171-10 292-10 114 0 208 2 282 10 77 7 135 22 178 43 43 22 72 46 92 70 19 27 29 58 29 96v6366zM130432 65310c0 56-19 99-56 128-39 29-89 48-157 63-65 14-162 22-289 22-121 0-220-7-292-22s-126-34-159-63c-34-29-51-70-51-128v-637c-277 297-586 528-929 693-343 162-705 244-1086 244-335 0-639-43-910-130-270-87-502-215-693-379s-340-369-446-608c-106-241-159-514-159-820 0-360 72-671 220-934 145-265 355-485 630-659 273-174 608-306 1004-393s842-130 1337-130h878v-497c0-244-27-461-77-651-53-188-135-345-251-471s-265-220-449-282c-183-65-410-97-678-97-287 0-545 34-772 104-229 70-430 145-601 229s-316 159-432 229c-113 70-200 104-256 104-39 0-72-10-99-29-29-17-53-46-75-84-22-36-36-84-46-142-10-60-14-123-14-195 0-116 7-210 24-278s58-133 121-193 174-133 328-217c154-82 335-159 538-229 200-68 422-125 664-171 239-46 482-68 726-68 456 0 845 51 1165 154 321 104 579 258 777 459 198 200 340 449 430 746 89 297 135 644 135 1040v4295zm-1158-2915h-997c-318 0-596 27-832 82-234 53-429 135-586 241-154 106-268 232-343 381-72 150-109 321-109 514 0 331 104 594 314 789s502 294 881 294c304 0 589-77 849-234 261-154 536-393 823-714v-1354zM137266 65302c0 39-7 70-24 99s-46 51-89 68-101 29-179 39c-75 10-174 15-297 15-116 0-210-5-285-15-77-10-137-22-181-39-46-17-77-39-94-68-17-26-24-60-24-99v-2676h-671c-292 0-519 24-683 70-162 48-309 125-437 236-130 111-246 253-350 425-104 171-203 381-297 632l-516 1243c-24 60-48 111-77 147-29 39-70 68-123 89-53 22-123 36-205 43s-183 10-307 10c-87 0-167-2-234-7-68-5-125-12-174-24-46-12-82-31-104-58-24-24-36-58-36-94 0-34 12-87 39-159s80-200 159-384l509-1194c133-302 294-562 487-779 193-220 415-381 666-485-459-84-820-268-1093-548-270-282-405-654-405-1117 0-307 63-584 191-832 128-249 314-459 562-630 246-174 550-307 912-398 360-92 772-138 1240-138 111 0 244 2 391 7 150 5 302 12 459 22 159 10 311 19 461 31 147 12 275 22 384 31 142 14 249 65 319 157 70 89 106 200 106 330v6049zm-1173-5687c-169-24-343-41-521-48-176-7-340-10-492-10-319 0-584 27-796 82-215 53-384 133-514 234-128 101-220 222-273 360-56 135-82 287-82 454 0 169 31 323 94 459 65 135 159 249 290 340 128 92 294 164 495 212 203 51 483 75 845 75h956v-2157zM147895 65353c0 26-7 53-24 72-17 22-48 41-92 53-46 15-104 27-179 34-72 7-167 10-280 10-130 0-239-5-321-15s-150-22-203-39c-51-17-89-39-111-63-24-27-41-56-51-89l-676-1648c-84-212-174-393-270-548-96-152-208-278-335-372-125-94-268-162-429-205-159-41-340-63-548-63h-492v2864c0 24-12 46-36 70s-58 43-106 56c-48 14-109 26-186 36-75 10-162 15-261 15-101 0-188-5-263-15-77-10-137-22-186-36-48-12-82-31-104-56-22-24-31-48-31-70v-6467c0-22 10-46 31-65 22-22 56-41 104-53 48-15 109-27 186-34 75-7 162-10 263-10 99 0 186 2 261 10 77 7 138 19 186 34 48 12 82 31 106 53 24 19 36 43 36 68v2674h492c176 0 340-19 487-60s282-106 403-198c123-94 232-212 326-360 96-147 186-323 265-531l589-1470c10-39 27-70 48-99 24-29 60-53 106-70 48-19 111-34 188-41s181-10 309-10c111 0 205 2 277 10 72 7 130 19 171 34 39 12 65 31 80 53 14 19 22 43 22 65 0 43-5 89-17 135-12 48-29 101-53 164l-608 1402c-94 237-195 434-307 596-111 159-222 294-335 401-111 106-227 188-345 249-116 58-229 104-338 137v15c164 56 316 123 456 203 140 82 268 181 389 297 121 118 232 258 335 422 104 162 200 347 292 560l700 1612c19 31 31 63 41 92 10 26 17 56 22 80 5 27 10 48 12 65s2 31 2 46zM155129 62045c0 519-68 997-205 1433-135 434-340 811-611 1127-270 316-611 562-1016 738-408 176-881 265-1416 265-524 0-980-77-1368-234-388-154-712-381-970-678s-451-659-579-1081c-128-425-191-905-191-1443 0-519 68-997 200-1431 135-437 338-813 608-1129s608-560 1013-736c405-174 878-261 1419-261 524 0 980 77 1368 234 388 154 712 381 970 678s454 656 584 1081c128 425 193 902 193 1436zm-1216 75c0-345-31-671-96-977-63-306-169-574-316-806-145-232-345-415-596-548-249-135-562-203-936-203-345 0-642 60-890 183-249 123-451 297-613 521s-280 490-357 796c-80 306-118 642-118 1004 0 350 31 678 96 984 63 307 169 574 319 804 150 227 350 410 598 543 251 135 565 203 939 203 340 0 635-60 886-183s456-294 618-516 280-487 355-794c75-306 113-644 113-1011zM164885 65240c5 104-29 176-99 220-70 41-215 63-429 63-118 0-215-2-290-7s-135-14-176-29c-43-14-72-34-89-60-17-24-27-58-31-101l-466-3709c-14-133-29-273-43-425-15-150-27-304-41-458-14-157-29-311-41-466-12-157-24-302-39-439l-7-162c-43 135-87 280-135 429-46 152-96 304-152 461-53 154-106 311-154 466-51 154-96 302-137 439l-1337 3764c-19 56-41 104-68 142-27 36-60 68-106 92-46 22-101 39-169 48-70 10-152 15-251 15s-183-5-249-15c-65-10-121-24-166-46-46-22-82-51-109-89-29-36-53-84-72-140l-1286-3772c-48-133-97-275-145-425-51-152-101-307-150-463-51-157-99-314-145-471-48-154-87-302-121-437l-7 162c-15 137-27 282-41 439-14 154-29 309-46 466-14 154-31 309-48 458-15 152-29 292-36 425l-429 3646c-5 56-15 101-31 138-17 34-48 60-96 77s-109 29-183 36c-77 7-176 10-299 10-118 0-212-5-280-15-70-10-121-27-157-48-36-24-58-53-68-89s-10-80 0-130l695-6020c24-150 77-263 159-343 82-77 208-116 372-116h557c135 0 251 10 347 31 97 22 179 58 249 111 68 51 125 121 171 208 48 87 92 195 135 328l941 2705c51 166 106 333 162 500 58 166 111 330 159 495 51 162 96 321 142 475 43 157 84 304 123 446h15c43-147 87-302 130-463 46-162 94-328 145-495 53-167 106-333 159-497 56-167 109-323 159-473l941-2693c39-118 80-220 123-306 46-87 101-159 166-212 68-56 145-94 239-121 92-27 203-39 335-39h553c169 0 299 36 386 106s138 183 152 338l710 6035zM172020 65302c0 39-10 70-29 96-19 24-48 48-92 68-41 17-101 31-176 41s-169 15-282 15c-118 0-215-5-290-15s-135-24-181-41c-43-19-75-43-94-68-19-27-29-58-29-96v-5557h-3026v5557c0 39-10 70-29 96-19 24-51 48-96 68-43 17-104 31-181 41-75 10-169 15-282 15-116 0-210-5-285-15-77-10-137-24-181-41-46-19-77-43-94-68-17-27-24-58-24-96v-6124c0-142 31-246 96-316 63-68 152-101 263-101h4659c111 0 200 34 261 101 60 70 92 174 92 316v6124zM178977 65310c0 56-19 99-56 128-39 29-89 48-157 63-65 14-162 22-289 22-121 0-220-7-292-22s-126-34-159-63c-34-29-51-70-51-128v-637c-277 297-586 528-929 693-343 162-705 244-1086 244-335 0-639-43-910-130-270-87-502-215-693-379s-340-369-446-608c-106-241-159-514-159-820 0-360 72-671 220-934 145-265 355-485 630-659 273-174 608-306 1004-393s842-130 1337-130h878v-497c0-244-27-461-77-651-53-188-135-345-251-471s-265-220-449-282c-183-65-410-97-678-97-287 0-545 34-772 104-229 70-430 145-601 229s-316 159-432 229c-113 70-200 104-256 104-39 0-72-10-99-29-29-17-53-46-75-84-22-36-36-84-46-142-10-60-14-123-14-195 0-116 7-210 24-278s58-133 121-193 174-133 328-217c154-82 335-159 538-229 200-68 422-125 664-171 239-46 482-68 726-68 456 0 845 51 1165 154 321 104 579 258 777 459 198 200 340 449 430 746 89 297 135 644 135 1040v4295zm-1158-2915h-997c-318 0-596 27-832 82-234 53-429 135-586 241-154 106-268 232-343 381-72 150-109 321-109 514 0 331 104 594 314 789s502 294 881 294c304 0 589-77 849-234 261-154 536-393 823-714v-1354zM186694 65302c0 39-10 70-29 96-19 24-48 48-92 68-43 17-101 31-178 41-75 10-169 15-282 15-121 0-217-5-292-15-77-10-135-24-179-41-43-19-72-43-92-68-19-27-29-58-29-96v-2792h-3229v2792c0 39-10 70-29 96-19 24-48 48-92 68-43 17-101 31-178 41-75 10-171 15-290 15-116 0-210-5-285-15-77-10-137-24-181-41-46-19-77-43-94-68-17-27-24-58-24-96v-6366c0-39 7-70 24-96 17-24 48-48 94-70 43-22 104-36 181-43 75-7 169-10 285-10 118 0 215 2 290 10 77 7 135 22 178 43 43 22 72 46 92 70 19 27 29 58 29 96v2589h3229v-2589c0-39 10-70 29-96 19-24 48-48 92-70 43-22 101-36 179-43 75-7 171-10 292-10 114 0 208 2 282 10 77 7 135 22 178 43 43 22 72 46 92 70 19 27 29 58 29 96v6366zM194521 65310c0 34-10 65-29 92-19 29-48 51-92 68-41 17-101 29-176 39s-169 15-282 15-208-5-282-15c-75-10-137-22-183-39-48-17-80-39-99-68s-29-58-29-92v-3663c0-186 5-372 14-565 10-191 22-376 36-562-109 191-229 374-357 557-130 181-261 362-391 540l-2695 3692c-34 39-63 70-89 99s-60 51-99 68c-41 17-92 29-154 36-60 7-137 10-227 10-104 0-191-5-256-15-68-10-121-22-159-39-41-17-70-39-87-68s-24-58-24-92v-6380c0-34 7-63 24-92s48-53 94-70c43-19 104-34 181-41 75-7 167-10 278-10 227 0 384 17 468 53s128 89 128 159v3685c0 183-5 367-15 548-10 183-22 362-36 543 109-181 220-355 331-528 109-171 229-340 355-504l2732-3743c26-39 56-70 87-96 31-27 68-48 113-63 43-17 97-26 159-34 60-7 140-12 239-12s183 5 251 12c70 7 123 19 164 39 39 19 68 41 84 70 17 29 24 60 24 99v6366zM201377 65302c0 39-7 70-24 99s-46 51-89 68-101 29-179 39c-75 10-174 15-297 15-116 0-210-5-285-15-77-10-137-22-181-39-46-17-77-39-94-68-17-26-24-60-24-99v-2676h-671c-292 0-519 24-683 70-162 48-309 125-437 236-130 111-246 253-350 425-104 171-203 381-297 632l-516 1243c-24 60-48 111-77 147-29 39-70 68-123 89-53 22-123 36-205 43s-183 10-307 10c-87 0-167-2-234-7-68-5-125-12-174-24-46-12-82-31-104-58-24-24-36-58-36-94 0-34 12-87 39-159s80-200 159-384l509-1194c133-302 294-562 487-779 193-220 415-381 666-485-459-84-820-268-1093-548-270-282-405-654-405-1117 0-307 63-584 191-832 128-249 314-459 562-630 246-174 550-307 912-398 360-92 772-138 1240-138 111 0 244 2 391 7 150 5 302 12 459 22 159 10 311 19 461 31 147 12 275 22 384 31 142 14 249 65 319 157 70 89 106 200 106 330v6049zm-1173-5687c-169-24-343-41-521-48-176-7-340-10-492-10-319 0-584 27-796 82-215 53-384 133-514 234-128 101-220 222-273 360-56 135-82 287-82 454 0 169 31 323 94 459 65 135 159 249 290 340 128 92 294 164 495 212 203 51 483 75 845 75h956v-2157z"/></svg>